<svg height="2238" width="720" xmlns="http://www.w3.org/2000/svg">
<rect height="2238" fill="#555" width="720"></rect>
<text fill="#7f7" font-family="Courier New" font-size="12" xml:space="preserve">
<tspan x="10" y="26"></tspan>
<tspan x="10" y="42">&gt; npmdoc-typings@0.0.1 test /home/travis/build/npmdoc/node-npmdoc-typings</tspan>
<tspan x="10" y="58">&gt; (set -e; export PORT=$(utility2 shServerPortRandom); utility2 test test.js)</tspan>
<tspan x="10" y="74"></tspan>
<tspan x="10" y="90"></tspan>
<tspan x="10" y="106">[MODE_BUILD=npmTest] - 2017-04-02T19:03:18Z - npm-testing /home/travis/build/npmdoc/node-npmdoc-\</tspan>
<tspan x="10" y="122">typings</tspan>
<tspan x="10" y="138"></tspan>
<tspan x="10" y="154"></tspan>
<tspan x="10" y="170">covering $ /home/travis/.nvm/versions/node/v6.10.1/bin/node /home/travis/build/npmdoc/node-npmdo\</tspan>
<tspan x="10" y="186">c-typings/test.js</tspan>
<tspan x="10" y="202">merging file:///home/travis/build/npmdoc/node-npmdoc-typings/tmp/build/test-report.json to test-\</tspan>
<tspan x="10" y="218">report</tspan>
<tspan x="10" y="234">&gt; server listening on http-port 48296</tspan>
<tspan x="10" y="250"></tspan>
<tspan x="10" y="266">Usage: typings &lt;command&gt;</tspan>
<tspan x="10" y="282"></tspan>
<tspan x="10" y="298">Commands:</tspan>
<tspan x="10" y="314">    bundle, i, in, info, init, install, la, list, ll, ls, open, prune, r,</tspan>
<tspan x="10" y="330">    remove, rm, search, un, uninstall, view</tspan>
<tspan x="10" y="346"></tspan>
<tspan x="10" y="362">typings &lt;command&gt; -h    Get help for &lt;command&gt;</tspan>
<tspan x="10" y="378">typings &lt;command&gt; -V    Enable verbose logging</tspan>
<tspan x="10" y="394"></tspan>
<tspan x="10" y="410">typings --version       Print the CLI version</tspan>
<tspan x="10" y="426">  [--loglevel] &lt;level&gt;  Set the log level ("debug", info", "warn", "error" or "silent")</tspan>
<tspan x="10" y="442"></tspan>
<tspan x="10" y="458">typings@2.1.0 /home/travis/build/npmdoc/node-npmdoc-typings/node_modules/typings</tspan>
<tspan x="10" y="474"></tspan>
<tspan x="10" y="490">created apidoc file:///home/travis/build/npmdoc/node-npmdoc-typings/tmp/build/apidoc.html</tspan>
<tspan x="10" y="506"></tspan>
<tspan x="10" y="522"></tspan>
<tspan x="10" y="538">browserTest - created electron entry-page /home/travis/build/npmdoc/node-npmdoc-typings/tmp/elec\</tspan>
<tspan x="10" y="554">tron.15b300cd7cb0.d3bdce47beacb.html</tspan>
<tspan x="10" y="570"></tspan>
<tspan x="10" y="586">[node test-case 1 of 6 passed] - testCase_buildLib_default</tspan>
<tspan x="10" y="602">[node test-case 2 of 6 passed] - testCase_buildReadme_default</tspan>
<tspan x="10" y="618">[node test-case 3 of 6 passed] - testCase_buildTest_default</tspan>
<tspan x="10" y="634"></tspan>
<tspan x="10" y="650">browserTest - created electron entry-page /home/travis/build/npmdoc/node-npmdoc-typings/tmp/elec\</tspan>
<tspan x="10" y="666">tron.15b300cd7f10.6253c015a34a.html</tspan>
<tspan x="10" y="682"></tspan>
<tspan x="10" y="698">Xlib:  extension "RANDR" missing on display ":99.0".</tspan>
<tspan x="10" y="714">Xlib:  extension "RANDR" missing on display ":99.0".</tspan>
<tspan x="10" y="730">&gt; server listening on http-port 40342</tspan>
<tspan x="10" y="746">merging file:///home/travis/build/npmdoc/node-npmdoc-typings/tmp/build/test-report.json to test-\</tspan>
<tspan x="10" y="762">report</tspan>
<tspan x="10" y="778">Xlib:  extension "RANDR" missing on display ":99.0".</tspan>
<tspan x="10" y="794">[5900:0402/190320:WARNING:audio_manager.cc(314)] Multiple instances of AudioManager detected</tspan>
<tspan x="10" y="810">[5900:0402/190320:WARNING:audio_manager.cc(275)] Multiple instances of AudioManager detected</tspan>
<tspan x="10" y="826">[5937:0402/190320:ERROR:sandbox_linux.cc(343)] InitializeSandbox() called with multiple threads \</tspan>
<tspan x="10" y="842">in process gpu-process. </tspan>
<tspan x="10" y="858">merging file:///home/travis/build/npmdoc/node-npmdoc-typings/tmp/build/test-report.json to test-\</tspan>
<tspan x="10" y="874">report</tspan>
<tspan x="10" y="890">Xlib:  extension "RANDR" missing on display ":99.0".</tspan>
<tspan x="10" y="906">[5901:0402/190320:WARNING:audio_manager.cc(314)] Multiple instances of AudioManager detected</tspan>
<tspan x="10" y="922">[5901:0402/190320:WARNING:audio_manager.cc(275)] Multiple instances of AudioManager detected</tspan>
<tspan x="10" y="938">[5969:0402/190320:ERROR:sandbox_linux.cc(343)] InitializeSandbox() called with multiple threads \</tspan>
<tspan x="10" y="954">in process gpu-process. </tspan>
<tspan x="10" y="970">[5901:0402/190320:ERROR:browser_gpu_channel_host_factory.cc(131)] Failed to create channel.</tspan>
<tspan x="10" y="986"></tspan>
<tspan x="10" y="1002">browserTest - opened url /home/travis/build/npmdoc/node-npmdoc-typings/tmp/build/apidoc.html</tspan>
<tspan x="10" y="1018"></tspan>
<tspan x="10" y="1034"></tspan>
<tspan x="10" y="1050">browserTest - opened url http://127.0.0.1:48296?modeTest=1</tspan>
<tspan x="10" y="1066"></tspan>
<tspan x="10" y="1082">[5901:0402/190322:INFO:CONSOLE(245)] "----------|-----------|-----------|-----------|-----------\</tspan>
<tspan x="10" y="1098">|</tspan>
<tspan x="10" y="1114">File      |   % Stmts |% Branches |   % Funcs |   % Lines |</tspan>
<tspan x="10" y="1130">----------|-----------|-----------|-----------|-----------|</tspan>
<tspan x="10" y="1146">----------|-----------|-----------|-----------|-----------|</tspan>
<tspan x="10" y="1162">All files |       100 |       100 |       100 |       100 |</tspan>
<tspan x="10" y="1178">----------|-----------|-----------|-----------|-----------|</tspan>
<tspan x="10" y="1194">", source: file:///home/travis/build/npmdoc/node-npmdoc-typings/tmp/electron.15b300cd7f10.6253c0\</tspan>
<tspan x="10" y="1210">15a34a.html (245)</tspan>
<tspan x="10" y="1226">[5901:0402/190322:INFO:CONSOLE(245)] "created coverage file:///tmp/build/coverage.html/index.htm\</tspan>
<tspan x="10" y="1242">l", source: file:///home/travis/build/npmdoc/node-npmdoc-typings/tmp/electron.15b300cd7f10.6253c\</tspan>
<tspan x="10" y="1258">015a34a.html (245)</tspan>
<tspan x="10" y="1274">[node test-case 4 of 6 passed] - testCase_buildApp_default</tspan>
<tspan x="10" y="1290"></tspan>
<tspan x="10" y="1306">browserTest - created screen-capture file:///home/travis/build/npmdoc/node-npmdoc-typings/tmp/bu\</tspan>
<tspan x="10" y="1322">ild/screen-capture.npmTest.browser._2Fhome_2Ftravis_2Fbuild_2Fnpmdoc_2Fnode-npmdoc-typings_2Ftmp\</tspan>
<tspan x="10" y="1338">_2Fbuild_2Fapidoc.html.png</tspan>
<tspan x="10" y="1354"></tspan>
<tspan x="10" y="1370">browserTest - created screen-capture file:///home/travis/build/npmdoc/node-npmdoc-typings/tmp/bu\</tspan>
<tspan x="10" y="1386">ild/screen-capture.npmTest.browser._2Fhome_2Ftravis_2Fbuild_2Fnpmdoc_2Fnode-npmdoc-typings_2Ftmp\</tspan>
<tspan x="10" y="1402">_2Fbuild_2Fapidoc.html.html</tspan>
<tspan x="10" y="1418"></tspan>
<tspan x="10" y="1434">browserTest - exit-code 0 - /home/travis/build/npmdoc/node-npmdoc-typings/tmp/build/apidoc.html</tspan>
<tspan x="10" y="1450"></tspan>
<tspan x="10" y="1466">[node test-case 5 of 6 passed] - testCase_buildApidoc_default</tspan>
<tspan x="10" y="1482"></tspan>
<tspan x="10" y="1498">browserTest - created screen-capture file:///home/travis/build/npmdoc/node-npmdoc-typings/tmp/bu\</tspan>
<tspan x="10" y="1514">ild/screen-capture.npmTest.browser..png</tspan>
<tspan x="10" y="1530"></tspan>
<tspan x="10" y="1546">browserTest - created screen-capture file:///home/travis/build/npmdoc/node-npmdoc-typings/tmp/bu\</tspan>
<tspan x="10" y="1562">ild/screen-capture.npmTest.browser..html</tspan>
<tspan x="10" y="1578"></tspan>
<tspan x="10" y="1594">browserTest - exit-code 0 - http://127.0.0.1:48296?modeTest=1</tspan>
<tspan x="10" y="1610"></tspan>
<tspan x="10" y="1626"></tspan>
<tspan x="10" y="1642">browserTest - merged coverage from /home/travis/build/npmdoc/node-npmdoc-typings/tmp/coverage.np\</tspan>
<tspan x="10" y="1658">mTest.browser.%2F.json</tspan>
<tspan x="10" y="1674"></tspan>
<tspan x="10" y="1690"></tspan>
<tspan x="10" y="1706">browserTest - merging test-report from /home/travis/build/npmdoc/node-npmdoc-typings/tmp/test-re\</tspan>
<tspan x="10" y="1722">port.npmTest.browser.%2F.json</tspan>
<tspan x="10" y="1738"></tspan>
<tspan x="10" y="1754">[node test-case 6 of 6 passed] - testCase_webpage_default</tspan>
<tspan x="10" y="1770">----------------------------|-----------|-----------|-----------|-----------|</tspan>
<tspan x="10" y="1786">File                        |   % Stmts |% Branches |   % Funcs |   % Lines |</tspan>
<tspan x="10" y="1802">----------------------------|-----------|-----------|-----------|-----------|</tspan>
<tspan x="10" y="1818">   node-npmdoc-typings/     |       100 |       100 |       100 |       100 |</tspan>
<tspan x="10" y="1834">      example.js            |       100 |       100 |       100 |       100 |</tspan>
<tspan x="10" y="1850">      lib.npmdoc_typings.js |       100 |       100 |       100 |       100 |</tspan>
<tspan x="10" y="1866">      test.js               |       100 |       100 |       100 |       100 |</tspan>
<tspan x="10" y="1882">----------------------------|-----------|-----------|-----------|-----------|</tspan>
<tspan x="10" y="1898">All files                   |       100 |       100 |       100 |       100 |</tspan>
<tspan x="10" y="1914">----------------------------|-----------|-----------|-----------|-----------|</tspan>
<tspan x="10" y="1930"></tspan>
<tspan x="10" y="1946">created coverage file:///home/travis/build/npmdoc/node-npmdoc-typings/tmp/build/coverage.html/in\</tspan>
<tspan x="10" y="1962">dex.html</tspan>
<tspan x="10" y="1978">merging file:///home/travis/build/npmdoc/node-npmdoc-typings/tmp/build/test-report.json to test-\</tspan>
<tspan x="10" y="1994">report</tspan>
<tspan x="10" y="2010"></tspan>
<tspan x="10" y="2026">-------------------------------------------------------</tspan>
<tspan x="10" y="2042">| test-report - buildNpmdoc - node - linux v6.10.1 - 2017-04-02T19:02:45.145Z</tspan>
<tspan x="10" y="2058">|   44539 ms            0 failed        6 passed      |</tspan>
<tspan x="10" y="2074">-------------------------------------------------------</tspan>
<tspan x="10" y="2090"></tspan>
<tspan x="10" y="2106">created test-report file:///home/travis/build/npmdoc/node-npmdoc-typings/tmp/build/test-report.h\</tspan>
<tspan x="10" y="2122">tml</tspan>
<tspan x="10" y="2138"></tspan>
<tspan x="10" y="2154"></tspan>
<tspan x="10" y="2170">npmTest - 0 failed tests</tspan>
<tspan x="10" y="2186"></tspan>
<tspan x="10" y="2202"></tspan>
<tspan x="10" y="2218">[MODE_BUILD=npmTest] - 2017-04-02T19:03:32Z - EXIT_CODE - 0</tspan>
</text>
</svg>
