<svg height="2254" width="720" xmlns="http://www.w3.org/2000/svg">
<rect height="2254" fill="#555" width="720"></rect>
<text fill="#7f7" font-family="Courier New" font-size="12" xml:space="preserve">
<tspan x="10" y="26"></tspan>
<tspan x="10" y="42">&gt; npmdoc-typings@0.0.1 test /home/travis/build/npmdoc/node-npmdoc-typings</tspan>
<tspan x="10" y="58">&gt; (set -e; export PORT=$(utility2 shServerPortRandom); utility2 test test.js)</tspan>
<tspan x="10" y="74"></tspan>
<tspan x="10" y="90"></tspan>
<tspan x="10" y="106">[MODE_BUILD=npmTest] - 2017-04-02T19:29:13Z - npm-testing /home/travis/build/npmdoc/node-npmdoc-\</tspan>
<tspan x="10" y="122">typings</tspan>
<tspan x="10" y="138"></tspan>
<tspan x="10" y="154"></tspan>
<tspan x="10" y="170">covering $ /home/travis/.nvm/versions/node/v6.10.1/bin/node /home/travis/build/npmdoc/node-npmdo\</tspan>
<tspan x="10" y="186">c-typings/test.js</tspan>
<tspan x="10" y="202">merging file:///home/travis/build/npmdoc/node-npmdoc-typings/tmp/build/test-report.json to test-\</tspan>
<tspan x="10" y="218">report</tspan>
<tspan x="10" y="234">&gt; server listening on http-port 33224</tspan>
<tspan x="10" y="250"></tspan>
<tspan x="10" y="266">Usage: typings &lt;command&gt;</tspan>
<tspan x="10" y="282"></tspan>
<tspan x="10" y="298">Commands:</tspan>
<tspan x="10" y="314">    bundle, i, in, info, init, install, la, list, ll, ls, open, prune, r,</tspan>
<tspan x="10" y="330">    remove, rm, search, un, uninstall, view</tspan>
<tspan x="10" y="346"></tspan>
<tspan x="10" y="362">typings &lt;command&gt; -h    Get help for &lt;command&gt;</tspan>
<tspan x="10" y="378">typings &lt;command&gt; -V    Enable verbose logging</tspan>
<tspan x="10" y="394"></tspan>
<tspan x="10" y="410">typings --version       Print the CLI version</tspan>
<tspan x="10" y="426">  [--loglevel] &lt;level&gt;  Set the log level ("debug", info", "warn", "error" or "silent")</tspan>
<tspan x="10" y="442"></tspan>
<tspan x="10" y="458">typings@2.1.0 /home/travis/build/npmdoc/node-npmdoc-typings/node_modules/typings</tspan>
<tspan x="10" y="474"></tspan>
<tspan x="10" y="490">created apidoc file:///home/travis/build/npmdoc/node-npmdoc-typings/tmp/build/apidoc.html</tspan>
<tspan x="10" y="506"></tspan>
<tspan x="10" y="522"></tspan>
<tspan x="10" y="538">browserTest - created electron entry-page /home/travis/build/npmdoc/node-npmdoc-typings/tmp/elec\</tspan>
<tspan x="10" y="554">tron.15b302490da0.972c60e4fc7ee.html</tspan>
<tspan x="10" y="570"></tspan>
<tspan x="10" y="586">Xlib:  extension "RANDR" missing on display ":99.0".</tspan>
<tspan x="10" y="602">[node test-case 1 of 6 passed] - testCase_buildLib_default</tspan>
<tspan x="10" y="618">[node test-case 2 of 6 passed] - testCase_buildReadme_default</tspan>
<tspan x="10" y="634">[node test-case 3 of 6 passed] - testCase_buildTest_default</tspan>
<tspan x="10" y="650"></tspan>
<tspan x="10" y="666">browserTest - created electron entry-page /home/travis/build/npmdoc/node-npmdoc-typings/tmp/elec\</tspan>
<tspan x="10" y="682">tron.15b302491940.f98e91366c62b.html</tspan>
<tspan x="10" y="698"></tspan>
<tspan x="10" y="714">Xlib:  extension "RANDR" missing on display ":99.0".</tspan>
<tspan x="10" y="730">merging file:///home/travis/build/npmdoc/node-npmdoc-typings/tmp/build/test-report.json to test-\</tspan>
<tspan x="10" y="746">report</tspan>
<tspan x="10" y="762">Xlib:  extension "RANDR" missing on display ":99.0".</tspan>
<tspan x="10" y="778">&gt; [4787:0402/192915:WARNING:audio_manager.cc(314)] Multiple instances of AudioManager detected</tspan>
<tspan x="10" y="794">[4787:0402/192915:WARNING:audio_manager.cc(275)] Multiple instances of AudioManager detected</tspan>
<tspan x="10" y="810">server listening on http-port 45706</tspan>
<tspan x="10" y="826">[4825:0402/192915:ERROR:sandbox_linux.cc(343)] InitializeSandbox() called with multiple threads \</tspan>
<tspan x="10" y="842">in process gpu-process. </tspan>
<tspan x="10" y="858">[4787:0402/192915:ERROR:browser_gpu_channel_host_factory.cc(131)] Failed to create channel.</tspan>
<tspan x="10" y="874">merging file:///home/travis/build/npmdoc/node-npmdoc-typings/tmp/build/test-report.json to test-\</tspan>
<tspan x="10" y="890">report</tspan>
<tspan x="10" y="906">Xlib:  extension "RANDR" missing on display ":99.0".</tspan>
<tspan x="10" y="922">[4800:0402/192915:WARNING:audio_manager.cc(314)] Multiple instances of AudioManager detected</tspan>
<tspan x="10" y="938">[4800:0402/192915:WARNING:audio_manager.cc(275)] Multiple instances of AudioManager detected</tspan>
<tspan x="10" y="954">[4861:0402/192915:ERROR:sandbox_linux.cc(343)] InitializeSandbox() called with multiple threads \</tspan>
<tspan x="10" y="970">in process gpu-process. </tspan>
<tspan x="10" y="986"></tspan>
<tspan x="10" y="1002">browserTest - opened url /home/travis/build/npmdoc/node-npmdoc-typings/tmp/build/apidoc.html</tspan>
<tspan x="10" y="1018"></tspan>
<tspan x="10" y="1034">[4800:0402/192915:ERROR:browser_gpu_channel_host_factory.cc(131)] Failed to create channel.</tspan>
<tspan x="10" y="1050"></tspan>
<tspan x="10" y="1066">browserTest - opened url http://127.0.0.1:33224?modeTest=1</tspan>
<tspan x="10" y="1082"></tspan>
<tspan x="10" y="1098">[4800:0402/192917:INFO:CONSOLE(245)] "----------|-----------|-----------|-----------|-----------\</tspan>
<tspan x="10" y="1114">|</tspan>
<tspan x="10" y="1130">File      |   % Stmts |% Branches |   % Funcs |   % Lines |</tspan>
<tspan x="10" y="1146">----------|-----------|-----------|-----------|-----------|</tspan>
<tspan x="10" y="1162">----------|-----------|-----------|-----------|-----------|</tspan>
<tspan x="10" y="1178">All files |       100 |       100 |       100 |       100 |</tspan>
<tspan x="10" y="1194">----------|-----------|-----------|-----------|-----------|</tspan>
<tspan x="10" y="1210">", source: file:///home/travis/build/npmdoc/node-npmdoc-typings/tmp/electron.15b302491940.f98e91\</tspan>
<tspan x="10" y="1226">366c62b.html (245)</tspan>
<tspan x="10" y="1242">[4800:0402/192917:INFO:CONSOLE(245)] "created coverage file:///tmp/build/coverage.html/index.htm\</tspan>
<tspan x="10" y="1258">l", source: file:///home/travis/build/npmdoc/node-npmdoc-typings/tmp/electron.15b302491940.f98e9\</tspan>
<tspan x="10" y="1274">1366c62b.html (245)</tspan>
<tspan x="10" y="1290">[node test-case 4 of 6 passed] - testCase_buildApp_default</tspan>
<tspan x="10" y="1306"></tspan>
<tspan x="10" y="1322">browserTest - created screen-capture file:///home/travis/build/npmdoc/node-npmdoc-typings/tmp/bu\</tspan>
<tspan x="10" y="1338">ild/screen-capture.npmTest.browser._2Fhome_2Ftravis_2Fbuild_2Fnpmdoc_2Fnode-npmdoc-typings_2Ftmp\</tspan>
<tspan x="10" y="1354">_2Fbuild_2Fapidoc.html.png</tspan>
<tspan x="10" y="1370"></tspan>
<tspan x="10" y="1386">browserTest - created screen-capture file:///home/travis/build/npmdoc/node-npmdoc-typings/tmp/bu\</tspan>
<tspan x="10" y="1402">ild/screen-capture.npmTest.browser._2Fhome_2Ftravis_2Fbuild_2Fnpmdoc_2Fnode-npmdoc-typings_2Ftmp\</tspan>
<tspan x="10" y="1418">_2Fbuild_2Fapidoc.html.html</tspan>
<tspan x="10" y="1434"></tspan>
<tspan x="10" y="1450">browserTest - exit-code 0 - /home/travis/build/npmdoc/node-npmdoc-typings/tmp/build/apidoc.html</tspan>
<tspan x="10" y="1466"></tspan>
<tspan x="10" y="1482">[node test-case 5 of 6 passed] - testCase_buildApidoc_default</tspan>
<tspan x="10" y="1498"></tspan>
<tspan x="10" y="1514">browserTest - created screen-capture file:///home/travis/build/npmdoc/node-npmdoc-typings/tmp/bu\</tspan>
<tspan x="10" y="1530">ild/screen-capture.npmTest.browser..png</tspan>
<tspan x="10" y="1546"></tspan>
<tspan x="10" y="1562">browserTest - created screen-capture file:///home/travis/build/npmdoc/node-npmdoc-typings/tmp/bu\</tspan>
<tspan x="10" y="1578">ild/screen-capture.npmTest.browser..html</tspan>
<tspan x="10" y="1594"></tspan>
<tspan x="10" y="1610">browserTest - exit-code 0 - http://127.0.0.1:33224?modeTest=1</tspan>
<tspan x="10" y="1626"></tspan>
<tspan x="10" y="1642"></tspan>
<tspan x="10" y="1658">browserTest - merged coverage from /home/travis/build/npmdoc/node-npmdoc-typings/tmp/coverage.np\</tspan>
<tspan x="10" y="1674">mTest.browser.%2F.json</tspan>
<tspan x="10" y="1690"></tspan>
<tspan x="10" y="1706"></tspan>
<tspan x="10" y="1722">browserTest - merging test-report from /home/travis/build/npmdoc/node-npmdoc-typings/tmp/test-re\</tspan>
<tspan x="10" y="1738">port.npmTest.browser.%2F.json</tspan>
<tspan x="10" y="1754"></tspan>
<tspan x="10" y="1770">[node test-case 6 of 6 passed] - testCase_webpage_default</tspan>
<tspan x="10" y="1786">----------------------------|-----------|-----------|-----------|-----------|</tspan>
<tspan x="10" y="1802">File                        |   % Stmts |% Branches |   % Funcs |   % Lines |</tspan>
<tspan x="10" y="1818">----------------------------|-----------|-----------|-----------|-----------|</tspan>
<tspan x="10" y="1834">   node-npmdoc-typings/     |       100 |       100 |       100 |       100 |</tspan>
<tspan x="10" y="1850">      example.js            |       100 |       100 |       100 |       100 |</tspan>
<tspan x="10" y="1866">      lib.npmdoc_typings.js |       100 |       100 |       100 |       100 |</tspan>
<tspan x="10" y="1882">      test.js               |       100 |       100 |       100 |       100 |</tspan>
<tspan x="10" y="1898">----------------------------|-----------|-----------|-----------|-----------|</tspan>
<tspan x="10" y="1914">All files                   |       100 |       100 |       100 |       100 |</tspan>
<tspan x="10" y="1930">----------------------------|-----------|-----------|-----------|-----------|</tspan>
<tspan x="10" y="1946"></tspan>
<tspan x="10" y="1962">created coverage file:///home/travis/build/npmdoc/node-npmdoc-typings/tmp/build/coverage.html/in\</tspan>
<tspan x="10" y="1978">dex.html</tspan>
<tspan x="10" y="1994">merging file:///home/travis/build/npmdoc/node-npmdoc-typings/tmp/build/test-report.json to test-\</tspan>
<tspan x="10" y="2010">report</tspan>
<tspan x="10" y="2026"></tspan>
<tspan x="10" y="2042">-------------------------------------------------------</tspan>
<tspan x="10" y="2058">| test-report - buildNpmdoc - node - linux v6.10.1 - 2017-04-02T19:28:57.142Z</tspan>
<tspan x="10" y="2074">|   27565 ms            0 failed        6 passed      |</tspan>
<tspan x="10" y="2090">-------------------------------------------------------</tspan>
<tspan x="10" y="2106"></tspan>
<tspan x="10" y="2122">created test-report file:///home/travis/build/npmdoc/node-npmdoc-typings/tmp/build/test-report.h\</tspan>
<tspan x="10" y="2138">tml</tspan>
<tspan x="10" y="2154"></tspan>
<tspan x="10" y="2170"></tspan>
<tspan x="10" y="2186">npmTest - 0 failed tests</tspan>
<tspan x="10" y="2202"></tspan>
<tspan x="10" y="2218"></tspan>
<tspan x="10" y="2234">[MODE_BUILD=npmTest] - 2017-04-02T19:29:27Z - EXIT_CODE - 0</tspan>
</text>
</svg>
